<svg width="512" height="512" viewBox="0 0 512 512" fill="none" xmlns="http://www.w3.org/2000/svg">
<path d="M354.137 353.87C299.157 408.85 237.913 445.755 184.122 461.61C129.497 477.709 87.6285 471.016 64.2582 447.645C40.888 424.275 34.1941 382.406 50.294 327.782C66.1484 273.99 103.053 212.747 158.033 157.767C213.013 102.787 274.256 65.8824 328.048 50.0279C382.672 33.928 424.541 40.6219 447.911 63.9922C471.282 87.3625 477.976 129.231 461.876 183.856C446.021 237.647 409.116 298.891 354.137 353.87Z" stroke="#98399B" stroke-width="40"/>
<path d="M354.137 157.767C409.116 212.747 446.021 273.99 461.876 327.782C477.976 382.406 471.282 424.275 447.911 447.645C424.541 471.016 382.672 477.709 328.048 461.61C274.256 445.755 213.013 408.85 158.033 353.87C103.053 298.891 66.1486 237.647 50.2941 183.856C34.1942 129.231 40.8881 87.3625 64.2583 63.9922C87.6286 40.6219 129.497 33.928 184.122 50.0279C237.913 65.8824 299.157 102.787 354.137 157.767Z" stroke="#6896F0" stroke-width="40"/>
<path d="M256 324C242.551 324 229.404 320.012 218.221 312.54C207.039 305.068 198.323 294.448 193.176 282.022C188.029 269.597 186.683 255.925 189.307 242.734C191.93 229.543 198.407 217.427 207.917 207.917C217.427 198.407 229.543 191.93 242.734 189.307C255.925 186.683 269.597 188.029 282.022 193.176C294.448 198.323 305.068 207.039 312.54 218.221C320.012 229.404 324 242.551 324 256C324 274.035 316.836 291.331 304.083 304.083C291.331 316.836 274.035 324 256 324ZM472 215.2C471.652 213.528 470.951 211.949 469.944 210.569C468.937 209.19 467.647 208.041 466.16 207.2L405.28 172.44L404.44 171.02L404.2 102.4C404.2 100.667 403.825 98.954 403.1 97.3796C402.375 95.8052 401.317 94.4066 400 93.28C378.738 75.3006 354.259 61.5171 327.86 52.66C326.273 52.1264 324.592 51.9308 322.925 52.0858C321.258 52.2408 319.641 52.743 318.18 53.56L256.92 87.72H254.92L193.82 53.52C192.352 52.7006 190.728 52.1988 189.054 52.0472C187.379 51.8956 185.691 52.0976 184.1 52.64C157.704 61.5229 133.237 75.3414 112 93.36C110.678 94.4807 109.615 95.8744 108.883 97.4453C108.151 99.0162 107.768 100.727 107.76 102.46L107.44 171.14C107.16 171.6 106.88 172.08 106.62 172.56L45.82 207.14C44.3258 207.994 43.0328 209.159 42.0286 210.557C41.0244 211.954 40.3325 213.552 40 215.24C34.6595 242.164 34.6595 269.876 40 296.8C40.348 298.472 41.049 300.051 42.0561 301.431C43.0632 302.81 44.3533 303.959 45.84 304.8L106.68 339.46L107.52 340.88L107.76 409.5C107.75 411.253 108.125 412.987 108.857 414.58C109.59 416.173 110.663 417.586 112 418.72C133.262 436.699 157.741 450.483 184.14 459.34C185.727 459.874 187.408 460.069 189.075 459.914C190.742 459.759 192.359 459.257 193.82 458.44L255.04 424.28H257.04L318.16 458.48C319.949 459.468 321.957 459.99 324 460C325.314 460.007 326.619 459.79 327.86 459.36C354.221 450.466 378.653 436.648 399.86 418.64C401.182 417.519 402.245 416.126 402.977 414.555C403.709 412.984 404.092 411.273 404.1 409.54L404.42 340.86C404.7 340.4 404.98 339.92 405.24 339.44L466.08 304.86C467.578 304.008 468.875 302.844 469.883 301.446C470.89 300.049 471.585 298.45 471.92 296.76C477.287 269.841 477.314 242.13 472 215.2Z" fill="#1A3262"/>
</svg>
